<svg xmlns="http://www.w3.org/2000/svg" xmlns:xlink="http://www.w3.org/1999/xlink" width="51" height="61" viewBox="0 0 51 61">
    <defs>
        <linearGradient id="b" x1="85.149%" x2="50%" y1="0%" y2="59.919%">
            <stop offset="0%" stop-color="#22BDBD"/>
            <stop offset="100%" stop-color="#50BA69"/>
        </linearGradient>
        <path id="a" d="M46.575 0c-2.348 0-4.268 1.875-4.268 4.17v15.594c.023.394.012.782-.029 1.164v.542c0 9.78-12.188 9.78-12.188 0V12.193c0-2.293-1.921-4.168-4.269-4.168-2.349 0-4.269 1.875-4.269 4.168v9.277c0 7.697-8.109 10.286-11.475 5.694a5.59 5.59 0 0 0-4.52-2.27C2.49 24.893 0 27.323 0 30.32c0 2.998 2.489 5.428 5.557 5.428 1.91 0 3.596-.942 4.596-2.376 2.465-3.53 11.4-1.693 11.4 4.388v10.687c0 2.294 1.92 4.17 4.268 4.17s4.269-1.876 4.269-4.17V38.086c0-8.354 12.188-8.354 12.188 0v6.13h-.005V56.47c0 2.294 1.954 4.17 4.302 4.17s4.269-1.876 4.269-4.17V4.17c0-2.294-1.92-4.169-4.269-4.169z"/>
    </defs>
    <use fill="url(#b)" fill-rule="evenodd" xlink:href="#a"/>
</svg>
