<svg xmlns="http://www.w3.org/2000/svg" xmlns:xlink="http://www.w3.org/1999/xlink" width="200" height="61" viewBox="0 0 200 61">
    <defs>
        <linearGradient id="b" x1="84.919%" x2="50%" y1="0%" y2="59.919%">
            <stop offset="0%" stop-color="#22BDBD"/>
            <stop offset="100%" stop-color="#50BA69"/>
        </linearGradient>
        <path id="a" d="M46.575 0c-2.348 0-4.268 1.881-4.268 4.183v15.646c.023.395.012.785-.029 1.168v.544c0 9.812-12.188 9.812-12.188 0v-9.308c0-2.3-1.921-4.182-4.269-4.182-2.349 0-4.269 1.881-4.269 4.182v9.308c0 7.722-8.109 10.32-11.475 5.713a5.583 5.583 0 0 0-4.52-2.279C2.49 24.975 0 27.413 0 30.42s2.489 5.445 5.557 5.445c1.91 0 3.596-.945 4.596-2.384 2.465-3.541 11.4-1.698 11.4 4.403V48.607c0 2.3 1.92 4.183 4.268 4.183s4.269-1.882 4.269-4.183V38.21c0-8.382 12.188-8.382 12.188 0v6.15h-.005v12.297c0 2.301 1.954 4.184 4.302 4.184s4.269-1.883 4.269-4.184V4.183c0-2.302-1.92-4.183-4.269-4.183z"/>
    </defs>
    <g fill="none" fill-rule="evenodd">
        <path fill="#1A1A1B" d="M184.061 19.826v21.189h15.78v-3.36h-12.1v-5.661h10.591v-3.36h-10.59v-5.449h11.948v-3.36h-15.629zm-22.391 0L151.623 30.48V19.826h-3.681v21.189h3.681V34.87l3.289-3.39 7.21 9.535h4.496l-9.172-12.078 8.78-9.111h-4.556zm-35.486 0l-5.974 9.384-5.914-9.384h-4.374l8.387 12.834v8.355h3.742v-8.446l8.387-12.743h-4.254zm-37.447 0v8.808H78.6v-8.808H74.92v21.189H78.6v-8.93h10.137v8.93h3.682v-21.19h-3.682z"/>
        <use fill="url(#b)" xlink:href="#a"/>
    </g>
</svg>
